<?xml version="1.0" encoding="utf-8"?>
<!-- Generator: Adobe Illustrator 27.8.0, SVG Export Plug-In . SVG Version: 6.00 Build 0)  -->
<svg version="1.0" id="Layer_1" xmlns="http://www.w3.org/2000/svg" xmlns:xlink="http://www.w3.org/1999/xlink" x="0px" y="0px"
	 viewBox="0 0 100 100" enable-background="new 0 0 100 100" xml:space="preserve">
<g>
	<path fill="#1E2150" d="M50.46,26.66c7.02,2.62,14.86-0.97,17.48-7.99S66.97,3.81,59.95,1.19S45.09,2.15,42.47,9.18
		C39.86,16.2,43.44,24.05,50.46,26.66z"/>
	<path fill="#1E2150" d="M17.87,56.25l11.87-9.87c0.27-0.11,0.54-0.23,0.81-0.37l1.91-1.04l4.81-12.92c0.28-0.77,0.6-1.45,0.95-2.07
		l-12.25,6.66c-1.03,0.27-2.05,0.81-2.93,1.63L12,49.77c-2.02,1.87-2.39,4.91-0.79,6.71C12.81,58.29,15.81,58.18,17.87,56.25z"/>
	<path fill="#1E2150" d="M27.86,68.46c-0.82-0.88-1.35-1.87-1.6-2.99l-8.82,14.24l-15,10.42c-2.41,1.48-3.17,4.65-1.69,7.07
		c1.48,2.41,4.65,3.17,7,1.72l16.21-8.72c0.22-0.13,0.42-0.28,0.61-0.44c1.04-0.49,1.96-1.27,2.61-2.32l9.11-14.72
		c-0.64-0.22-1.28-0.45-1.91-0.69C31.99,71.14,29.5,70.22,27.86,68.46z"/>
	<path fill="#1E2150" d="M84.63,46.49L69.66,41.6c-0.06-0.02-0.13-0.03-0.19-0.04l-13.14-9.51c-0.1-0.07-0.2-0.13-0.3-0.2l0,0
		c0,0-0.02-0.01-0.06-0.04c-0.1-0.06-0.2-0.12-0.3-0.18c-0.83-0.5-2.94-1.72-4.3-2.23c-0.32-0.12-0.64-0.24-0.96-0.36
		c-4.54-1.69-9.23-3.44-11.82,3.5L28.24,60.33c-2.59,6.95,2.1,8.69,6.64,10.39c1.5,0.56,3.02,1.12,4.48,1.38
		c0.6,0.17,1.24,0.25,1.9,0.23l14.93-0.58L54.82,82.4c-0.51,2.71,1.33,5.4,4.11,5.92c2.79,0.52,5.47-1.32,6-4.1l4.38-17.73
		c0.01-0.06,0.02-0.12,0.02-0.18c0-0.03,0.01-0.06,0.01-0.09c0.02-0.16,0.04-0.32,0.05-0.48c0.01-0.1,0.01-0.19,0.01-0.29
		s0.01-0.21,0-0.31c0-0.04,0-0.07,0-0.1c0-0.11-0.02-0.21-0.03-0.31c-0.01-0.06-0.01-0.11-0.02-0.17c-0.02-0.18-0.05-0.36-0.09-0.53
		c0-0.01-0.01-0.03-0.01-0.04c-0.12-0.59-0.33-1.14-0.61-1.65c-0.01-0.01-0.01-0.03-0.02-0.04c-0.08-0.14-0.17-0.28-0.26-0.42
		c-0.03-0.04-0.05-0.08-0.08-0.11c-0.08-0.11-0.15-0.21-0.24-0.32c-0.05-0.06-0.1-0.13-0.15-0.19c-0.06-0.07-0.13-0.14-0.2-0.21
		c-0.08-0.08-0.16-0.16-0.24-0.24c-0.05-0.05-0.1-0.09-0.15-0.13c-0.1-0.09-0.21-0.18-0.32-0.27c-0.04-0.03-0.08-0.06-0.11-0.08
		c-0.12-0.09-0.25-0.18-0.38-0.26c-0.04-0.02-0.07-0.04-0.11-0.07c-0.13-0.08-0.26-0.15-0.4-0.22c-0.05-0.02-0.1-0.05-0.15-0.07
		c-0.13-0.06-0.25-0.12-0.38-0.17c-0.08-0.03-0.16-0.06-0.24-0.08c-0.11-0.04-0.21-0.07-0.32-0.11c-0.11-0.03-0.22-0.06-0.34-0.08
		c-0.07-0.01-0.13-0.04-0.2-0.05c-0.02,0-0.04,0-0.06-0.01c-0.12-0.02-0.24-0.03-0.36-0.05c-0.09-0.01-0.18-0.02-0.27-0.03
		c-0.1-0.01-0.21-0.01-0.31-0.01c-0.11,0-0.22-0.01-0.32,0c-0.02,0-0.04,0-0.07,0l-13.48,0.52l5.26-14.11l-4.52-3.27l0,0
		c0,0-0.76-1.6,1.15-0.91l0,0l12.8,9.26c1.11,0.8,2.39,1.25,3.63,1.32l14.43,2.98c2.66,0.71,5.43-0.59,6.1-2.9
		C89.05,49.69,87.37,47.21,84.63,46.49z"/>
	<path fill="#1E2150" d="M99.41,36.52c-0.57-0.57-1.11-0.95-1.98-0.07l-9.89,9.92c0.68,0.53,1.25,1.17,1.67,1.9
		c0.07,0.12,0.13,0.24,0.19,0.37l10.1-10.13C100.36,37.63,99.98,37.09,99.41,36.52z"/>
</g>
</svg>
