<?xml version="1.0" encoding="utf-8"?>
<!-- Generator: Adobe Illustrator 27.8.0, SVG Export Plug-In . SVG Version: 6.00 Build 0)  -->
<svg version="1.0" id="Layer_1" xmlns="http://www.w3.org/2000/svg" xmlns:xlink="http://www.w3.org/1999/xlink" x="0px" y="0px"
	 viewBox="0 0 100 100" enable-background="new 0 0 100 100" xml:space="preserve">
<g>
	<path fill="#1E2150" d="M35.59,24.28c4.75,2.21,10.42,0.14,12.63-4.62c2.21-4.75,0.14-10.42-4.61-12.63s-10.42-0.14-12.63,4.61
		C28.77,16.4,30.84,22.07,35.59,24.28z"/>
	<path fill="#1E2150" d="M43.45,69.05c1.94-0.4,3.19-2.31,2.79-4.25l-1.87-12.64c-0.11-0.53-0.32-1.02-0.59-1.45
		c-0.6-1.18-1.73-2.08-3.13-2.32l-10.79-1.83l6.73-14.48c2.19-4.7-1.02-6.19-4.12-7.63c-0.84-0.39-1.7-0.79-2.53-1.06
		c-0.66-0.32-1.42-0.5-2.21-0.48l-12.1,0.34c-0.37,0.01-0.73,0.06-1.08,0.15h-0.01c-0.09,0.02-0.18,0.05-0.27,0.08
		c-0.08,0.02-0.16,0.05-0.24,0.08c-0.04,0.01-0.07,0.03-0.11,0.04c-0.09,0.03-0.17,0.07-0.26,0.11c-0.04,0.02-0.08,0.04-0.12,0.06
		c-0.07,0.03-0.13,0.07-0.2,0.11c-0.06,0.03-0.11,0.07-0.17,0.1c-0.06,0.04-0.11,0.07-0.17,0.11c-0.05,0.03-0.09,0.07-0.14,0.1
		c-0.48,0.36-0.91,0.82-1.26,1.37L6.25,35.2c-1.06,1.67-0.74,3.74,0.71,4.61s3.49,0.21,4.51-1.42l5.62-7.9l4.96-0.14l-6.82,14.67
		c-2.19,4.7,1.02,6.19,4.12,7.63c1.13,0.52,2.26,1.05,3.36,1.29c0.35,0.17,0.74,0.3,1.14,0.37l12.72,2.16l2.63,9.84
		C39.6,68.2,41.51,69.45,43.45,69.05z"/>
	<path fill="#1E2150" d="M14.54,50.68c-0.3-0.37-0.52-0.76-0.69-1.17l-3.43,11.12l-9.01,7.75c-1.57,1.2-1.87,3.46-0.67,5.04
		c1.21,1.57,3.47,1.87,5,0.7l10.65-7.24c0.3-0.23,0.55-0.49,0.77-0.77c0.54-0.5,0.97-1.14,1.2-1.9l2.98-9.65
		c-0.81-0.28-1.62-0.66-2.4-1.02C17.3,52.79,15.6,52,14.54,50.68z"/>
	<path fill="#1E2150" d="M38.22,28.42c0.22,1.19-0.02,2.53-0.74,4.07l-1.37,2.94l8.49,3.5c0.6,0.25,1.22,0.37,1.82,0.38
		c0.02,0,0.04,0,0.06,0c0.09,0,0.18,0,0.27-0.01c0.06,0,0.13-0.01,0.19-0.02c0.07-0.01,0.14-0.01,0.21-0.02
		c0.05-0.01,0.09-0.02,0.14-0.02c0.1-0.02,0.19-0.04,0.28-0.06c0.02,0,0.03-0.01,0.05-0.01c0.12-0.03,0.23-0.07,0.34-0.11
		c0.02-0.01,0.03-0.01,0.05-0.02c0.09-0.03,0.17-0.07,0.26-0.11c0.66-0.29,1.28-0.73,1.8-1.34l6.74-8.72
		c1.3-1.49,1.3-3.59-0.01-4.67c-1.3-1.07-3.41-0.73-4.67,0.72l-6.38,6.59L38.22,28.42z"/>
	<path fill="#1E2150" d="M77.8,43.3c4.75,2.21,10.42,0.14,12.63-4.62c2.21-4.75,0.14-10.42-4.61-12.63
		c-4.76-2.21-10.42-0.14-12.63,4.61C70.98,35.42,73.05,41.09,77.8,43.3z"/>
	<path fill="#1E2150" d="M86.58,71.17c-0.11-0.53-0.32-1.02-0.59-1.45c-0.6-1.19-1.73-2.09-3.14-2.32l-10.79-1.83l6.73-14.48
		c2.19-4.7-1.02-6.19-4.12-7.63c-0.84-0.39-1.7-0.79-2.53-1.06c-0.66-0.32-1.42-0.5-2.21-0.48l-12.1,0.34
		c-0.37,0.01-0.73,0.06-1.08,0.15h-0.01c-0.09,0.02-0.18,0.05-0.27,0.08c-0.08,0.02-0.16,0.05-0.24,0.08
		c-0.04,0.01-0.07,0.03-0.11,0.04c-0.09,0.03-0.17,0.07-0.26,0.11c-0.04,0.02-0.08,0.04-0.12,0.06c-0.07,0.03-0.13,0.07-0.2,0.11
		c-0.06,0.03-0.11,0.07-0.17,0.1c-0.06,0.04-0.11,0.07-0.17,0.11c-0.05,0.03-0.1,0.07-0.14,0.1c-0.48,0.36-0.91,0.82-1.26,1.37
		l-5.34,9.64c-1.06,1.67-0.74,3.74,0.71,4.61s3.49,0.21,4.51-1.42l5.62-7.9l4.96-0.14l-6.82,14.67c-2.19,4.7,1.02,6.19,4.12,7.63
		c1.12,0.52,2.26,1.05,3.36,1.29c0.35,0.17,0.74,0.3,1.14,0.37l12.72,2.15l2.63,9.84c0.39,1.89,2.29,3.14,4.24,2.74
		c1.94-0.4,3.19-2.31,2.79-4.25L86.58,71.17z"/>
	<path fill="#1E2150" d="M56.76,69.69c-0.29-0.37-0.52-0.76-0.69-1.17l-3.43,11.12l-9.01,7.75c-1.57,1.2-1.87,3.46-0.67,5.04
		c1.21,1.57,3.46,1.87,5,0.7L58.6,85.9c0.3-0.23,0.55-0.49,0.77-0.77c0.54-0.5,0.97-1.14,1.2-1.9l2.98-9.65
		c-0.81-0.28-1.62-0.66-2.4-1.02C59.51,71.8,57.82,71.02,56.76,69.69z"/>
	<path fill="#1E2150" d="M99.01,43.22c-1.3-1.07-3.41-0.73-4.67,0.72l-6.38,6.59l-7.53-3.1c0.22,1.19-0.02,2.53-0.74,4.07
		l-1.37,2.94l8.49,3.5c0.6,0.25,1.22,0.37,1.82,0.38c0.02,0,0.05,0,0.07,0c0.09,0,0.17,0,0.26-0.01c0.06,0,0.13-0.01,0.2-0.02
		c0.07-0.01,0.13-0.01,0.2-0.02c0.05-0.01,0.1-0.02,0.14-0.03c0.09-0.02,0.19-0.04,0.28-0.06c0.02,0,0.03-0.01,0.05-0.01
		c0.11-0.03,0.23-0.06,0.33-0.1c0.02-0.01,0.03-0.01,0.05-0.02c0.09-0.03,0.17-0.07,0.25-0.1c0.66-0.29,1.28-0.73,1.8-1.34L99,47.89
		C100.32,46.39,100.31,44.3,99.01,43.22z"/>
</g>
</svg>
