<?xml version="1.0" encoding="utf-8"?>
<!-- Generator: Adobe Illustrator 27.8.0, SVG Export Plug-In . SVG Version: 6.00 Build 0)  -->
<svg version="1.0" id="Layer_1" xmlns="http://www.w3.org/2000/svg" xmlns:xlink="http://www.w3.org/1999/xlink" x="0px" y="0px"
	 viewBox="0 0 100 100" enable-background="new 0 0 100 100" xml:space="preserve">
<g>
	<path fill="#1E2150" d="M35.31,47.64c-6.03-0.97-11.7,3.14-12.67,9.17c-0.97,6.03,3.14,11.71,9.17,12.67
		c6.03,0.97,11.7-3.14,12.67-9.17C45.45,54.29,41.34,48.61,35.31,47.64z"/>
	<path fill="#1E2150" d="M58.89,55.93c-0.32-0.53-0.69-0.98-1.11-1.37l-6.38-8.3c3.81-2.03,8.14-2.93,12.52-2.58
		c2.74,0.33,4.1-0.88,4.94-2.7l8.97,2.81l0.19,5.14h9.05l0.68-8.78c0.05-2.58-1.79-4.72-4.22-5.12l-16.84-5.28
		c-0.33-0.11-0.67-0.18-1-0.21c-0.33-0.06-0.67-0.12-1.04-0.16c-9.11-0.75-18.09,1.99-25.25,7.66c-0.34-0.13-0.69-0.23-1.05-0.32
		l-13.11-2.58c-0.09-0.06-0.18-0.13-0.27-0.19l-11.34-6.32c-1.89-1.2-4.36-0.86-5.44,0.77c-1.09,1.66-0.39,3.99,1.56,5.22
		l10.43,7.45c0.11,0.06,0.2,0.12,0.3,0.18c0.67,0.53,1.48,0.91,2.41,1.1l13.82,2.72c0.32,0.06,0.62,0.09,0.92,0.11
		c0.55,0.63,1.18,1.21,1.79,1.75c1.32,1.21,2.6,2.35,3.97,2.83l8.24,10.72c0.05,0.06,0.09,0.11,0.14,0.16l6.89,10.22
		c1.14,1.93,3.49,2.74,5.21,1.78c1.7-0.97,2.14-3.36,0.96-5.35L58.89,55.93z"/>
	<path fill="#1E2150" d="M76.79,47.15l-0.09-2.49l-7.29-2.29c-1.02,1.62-2.69,2.79-5.62,2.45c-0.28-0.02-0.55-0.04-0.83-0.05
		l3.39,2.43l-0.5,1.73h10.2v0.01L76.79,47.15z"/>
	<path fill="#1E2150" d="M63.29,57.86c-0.75,2.11,0.4,4.51,2.57,5.28c2.18,0.76,4.58-0.39,5.34-2.56l2.66-6.39h-9.51L63.29,57.86z"
		/>
	<path fill="#1E2150" d="M78.23,54.87c-0.05,2.25,1.8,4.17,4.1,4.22c2.3,0.05,4.22-1.79,4.26-4.1l0.06-0.81h-8.44L78.23,54.87z"/>
	<path fill="#1E2150" d="M22.67,53.04c0.55-1.09,1.25-2.08,2.08-2.94H0v2.94H22.67z"/>
	<polygon fill="#1E2150" points="55.79,50.09 58.05,53.04 100,53.04 100,50.09 	"/>
</g>
</svg>
