<?xml version="1.0" encoding="utf-8"?>
<!-- Generator: Adobe Illustrator 27.8.0, SVG Export Plug-In . SVG Version: 6.00 Build 0)  -->
<svg version="1.0" id="Layer_1" xmlns="http://www.w3.org/2000/svg" xmlns:xlink="http://www.w3.org/1999/xlink" x="0px" y="0px"
	 viewBox="0 0 100 100" enable-background="new 0 0 100 100" xml:space="preserve">
<g>
	<path fill="#1E2150" d="M75.63,44.79l-15.37-1.83c-0.1-0.01-0.21-0.03-0.31-0.04l-0.07-0.01c-0.09-0.01-0.18,0-0.27,0
		c-0.05,0-0.1-0.01-0.16-0.01h-0.13h-0.01l-7.67,0.13l9.37-12.16c3.93-5.1,0.46-7.78-2.9-10.37c-1.81-1.39-3.65-2.81-5.58-3.03
		c-0.15-0.04-0.3-0.08-0.45-0.11l-14.74-2.95c-0.46-0.09-0.91-0.12-1.35-0.12h-0.01c-0.12,0-0.24,0.01-0.36,0.02
		c-0.1,0.01-0.2,0.02-0.31,0.03c-0.05,0.01-0.1,0.01-0.15,0.02c-0.11,0.02-0.22,0.04-0.34,0.06c-0.06,0.01-0.12,0.03-0.18,0.04
		c-0.09,0.02-0.18,0.05-0.26,0.08c-0.08,0.02-0.16,0.05-0.24,0.08s-0.15,0.06-0.23,0.09c-0.07,0.03-0.14,0.06-0.21,0.09
		c-0.68,0.3-1.33,0.74-1.9,1.31L22.66,26.3c-1.74,1.73-1.93,4.33-0.42,5.78c1.51,1.45,4.16,1.22,5.85-0.47l9-8.01l6.68,1.34
		L31.6,40.74c-3.93,5.1-0.46,7.78,2.91,10.37c0.91,0.7,1.83,1.41,2.77,1.97c0.25,0.17,0.53,0.31,0.81,0.43
		c0.05,0.02,0.1,0.06,0.15,0.08l0.01-0.01c0.64,0.25,1.33,0.39,2.05,0.37l19.32-0.32c0.06,0,0.13-0.01,0.19-0.01l15.33,0.08
		c2.4,0.15,4.52-1.72,4.67-4.18C79.96,47.06,78.09,44.94,75.63,44.79z"/>
	<path fill="#1E2150" d="M61.93,21.16c5.16,3.98,12.59,3.01,16.56-2.15c3.98-5.16,3.02-12.59-2.14-16.56
		c-5.16-3.98-12.59-3.02-16.56,2.14C55.81,9.75,56.77,17.18,61.93,21.16z"/>
	<path fill="#1E2150" d="M30.15,64.85l6.24-10.87c-0.91-0.57-1.78-1.24-2.63-1.89c-1.78-1.37-3.62-2.79-4.54-4.68
		c-0.26-0.53-0.43-1.06-0.52-1.6l-7.62,13.28c-0.2,0.2-0.39,0.41-0.56,0.64l-8.65,13.31c-1.45,1.98-1.03,4.78,0.96,6.24
		c1.98,1.45,4.78,1.03,6.2-0.91l10.09-12.23C29.52,65.77,29.87,65.34,30.15,64.85z"/>
	<path fill="#1E2150" d="M87.91,21.2c-1.55-1.41-4.19-1.12-5.84,0.61l-8.32,7.78l-10.09-4.75c0.76,2.11,0.2,4.33-1.68,6.78
		l-1.38,1.79l11.28,5.31c0.73,0.35,1.49,0.53,2.24,0.58c0.03,0,0.05,0,0.08,0c0.11,0.01,0.22,0.01,0.33,0.01
		c0.08,0,0.16,0,0.24-0.01c0.09,0,0.17-0.01,0.26-0.02c0.06-0.01,0.12-0.01,0.17-0.02c0.12-0.02,0.24-0.03,0.36-0.06
		c0.02,0,0.04-0.01,0.06-0.01c0.15-0.03,0.29-0.07,0.43-0.11c0.02,0,0.03-0.01,0.05-0.02c0.11-0.04,0.23-0.08,0.34-0.12
		c0.83-0.32,1.63-0.83,2.31-1.55l8.89-10.41C89.33,25.22,89.46,22.62,87.91,21.2z"/>
	<polygon fill="#1E2150" points="63.15,94.34 25.23,94.34 25.23,100 68.27,100 68.27,97.17 68.27,94.34 68.27,56.67 63.15,56.67 	
		"/>
</g>
</svg>
