<?xml version="1.0" encoding="utf-8"?>
<!-- Generator: Adobe Illustrator 27.8.0, SVG Export Plug-In . SVG Version: 6.00 Build 0)  -->
<svg version="1.0" id="Layer_1" xmlns="http://www.w3.org/2000/svg" xmlns:xlink="http://www.w3.org/1999/xlink" x="0px" y="0px"
	 viewBox="0 0 100 100" enable-background="new 0 0 100 100" xml:space="preserve">
<g>
	<path fill="#1E2150" d="M20.96,43.07l9.95-7.7c2.21-1.53,2.99-4.4,1.7-6.36c-1.3-1.96-4.2-2.28-6.46-0.71l-10.77,6.18
		c-2.79,1.93-3.74,5.39-2.18,7.75C14.75,44.58,18.24,44.96,20.96,43.07z"/>
	<path fill="#1E2150" d="M83.02,25.61l-15.19-2.2c-0.11-0.01-0.21-0.01-0.32-0.02c-0.05,0-0.1,0-0.15-0.01c-0.08,0-0.17,0-0.25,0
		c-0.28,0-0.56,0.01-0.84,0.04l-13.78,1.49c-2.45,1.84-5.49,2.94-8.78,2.94c-0.22,0-0.44,0-0.65-0.01
		c-0.65,3.65-3.83,6.43-7.67,6.43c-0.54,0-1.06-0.06-1.56-0.16c-0.49,0.9-1.2,1.72-2.11,2.36l-4.41,3.41V60.5
		c0,0.71,0.06,1.35,0.17,1.92l-3.72,13.81l-9.2,14.48c-1.61,2.24-1.1,5.37,1.15,6.99c2.24,1.61,5.37,1.1,6.94-1.09l11.27-13.95
		c0.12-0.17,0.24-0.35,0.34-0.53c0.39-0.56,0.71-1.19,0.89-1.89l3.37-12.52c0.27,0,0.55,0,0.82,0c0.15,0,0.29,0,0.44,0l6.44,10.94
		l-1.66,15.58c-0.44,2.66,1.41,5.23,4.13,5.68s5.3-1.4,5.75-4.12l3.88-17.37c0.07-0.42,0.09-0.84,0.08-1.25
		c-0.01-1.01-0.28-2.03-0.83-2.96L51.02,63.1c0.22-0.74,0.34-1.6,0.34-2.61V35.25l15.23-1.65h0.01l15.53,0.49
		c2.67,0.24,5.11-1.47,5.37-3.8C87.79,27.95,85.77,25.85,83.02,25.61z"/>
	<path fill="#1E2150" d="M35.4,18.69c4.29,0,7.79,3.49,7.79,7.78c0.17,0.01,0.35,0.01,0.53,0.01c7.3,0,13.24-5.94,13.24-13.24
		S51.02,0,43.72,0S30.48,5.94,30.48,13.24c0,2.25,0.56,4.37,1.56,6.22C33.05,18.97,34.19,18.69,35.4,18.69z"/>
	<path fill="#1E2150" d="M33.75,28.24c0.89,1.35,1.06,3.01,0.61,4.57c0.34,0.06,0.68,0.09,1.03,0.09c3.55,0,6.42-2.87,6.42-6.42
		s-2.87-6.42-6.42-6.42c-3.36,0-6.11,2.58-6.39,5.87c0.04,0,0.08-0.01,0.12-0.01C31.04,25.89,32.77,26.76,33.75,28.24z"/>
</g>
</svg>
