<?xml version="1.0" encoding="utf-8"?>
<!-- Generator: Adobe Illustrator 27.8.0, SVG Export Plug-In . SVG Version: 6.00 Build 0)  -->
<svg version="1.0" id="Layer_1" xmlns="http://www.w3.org/2000/svg" xmlns:xlink="http://www.w3.org/1999/xlink" x="0px" y="0px"
	 viewBox="0 0 100 100" enable-background="new 0 0 100 100" xml:space="preserve">
<g>
	<path fill="#1E2150" d="M6.57,56.49l-2.48,8.13c-0.12,0.16-0.22,0.32-0.31,0.51l-3.54,8.51c-0.6,1.24-0.07,2.78,1.21,3.4
		s2.82,0.08,3.44-1.19l4.37-7.87c0.27-0.31,0.48-0.69,0.61-1.11l2.15-7.05c-0.11-0.02-0.22-0.05-0.33-0.07
		C9.71,59.32,7.15,58.77,6.57,56.49z"/>
	<path fill="#1E2150" d="M26.66,52.2c-0.65-0.26-1.33-0.28-1.95-0.12l-6.85,0.49l0.17-11.9c0.05-3.71-2.71-3.75-5.38-3.79
		l-0.04-0.43l0.47-7.64c0.01-0.21,0.01-0.41-0.02-0.62c0.01-0.38-0.05-0.78-0.19-1.18l-2.99-7.4c-0.44-1.31-1.75-2.1-2.9-1.74
		s-1.72,1.75-1.26,3.09l2.12,7.6c0.01,0.03,0.02,0.05,0.03,0.07l-0.42,6.94l0,0v0.03l-0.09,1.52c-0.01,0.12-0.01,0.24,0,0.36
		l-0.1,2.07c-0.05,0.29-0.08,0.61-0.09,0.97L6.92,55.36c-0.05,3.71,2.72,3.75,5.39,3.79c1.09,0.02,2.19,0.03,3.12-0.21l5.62-0.4
		l-1.39,4.09c-0.52,1.28,0.12,2.78,1.43,3.32c1.32,0.53,2.82-0.1,3.35-1.42l3.91-8.27C29.01,54.65,28.24,52.84,26.66,52.2z"/>
	<path fill="#1E2150" d="M16.64,36.76c1.4,0.65,2.09,1.96,2.08,3.87l4.69-5.72c0.13-0.15,0.23-0.32,0.33-0.49
		c0.24-0.31,0.43-0.68,0.55-1.09l1.91-7.75c0.12-0.38,0.15-0.77,0.11-1.14c-1.35-0.39-2.63-0.74-3.85-1.06
		c-0.18,0.25-0.33,0.54-0.43,0.86l-2.73,7.4c-0.01,0.02-0.01,0.05-0.02,0.07l-3.83,4.67C15.88,36.47,16.28,36.58,16.64,36.76z"/>
	<path fill="#1E2150" d="M13.01,22.36c-0.44-0.06-0.87-0.08-1.3-0.06l1.8,4.44c0,0.01,0.01,0.02,0.01,0.04
		c0.15,0.45,0.23,0.91,0.23,1.38c0.02,0.24,0.03,0.47,0.02,0.7l-0.42,6.92c2.75-0.54,4.99-2.77,5.42-5.69
		C19.3,26.37,16.72,22.91,13.01,22.36z"/>
	<path fill="#1E2150" d="M7.13,28.73l-0.88-3.15c-0.24,0.38-0.44,0.79-0.6,1.22c-0.89,2.38-0.35,4.95,1.18,6.77L7.13,28.73z"/>
	<path fill="#1E2150" d="M4.83,19.97c0.01-0.5,0.12-0.98,0.33-1.41c0.09-0.18,0.19-0.34,0.31-0.49c-0.41,0-0.64,0.01-0.7,0.02
		c-0.52,0.03-0.92,0.47-0.89,0.99C3.92,19.59,4.34,19.97,4.83,19.97z"/>
	<path fill="#1E2150" d="M98.17,75.88C98.03,75.65,84,52.81,60.39,37.13c-4.41-2.93-8.87-5.41-13.19-7.51
		c-1.59-0.98-5.61-2.77-10.7-4.6c-0.33-0.12-0.64-0.22-0.96-0.34c-12.35-4.52-21.85-5.86-23.26-6.04c-0.84-0.12-1.61-0.22-2.3-0.29
		c0.23,0.3,0.42,0.64,0.54,1.01l0.41,1.02c0.29,0.04,0.6,0.08,0.92,0.12c0.01,0,0.01,0.01,0.02,0.01s0.1,0.01,0.22,0.03
		c4.79,0.69,11.95,2.19,21.45,5.45c7.8,2.75,16.88,6.81,25.8,12.73c23.24,15.43,37.07,37.93,37.21,38.15
		c0.18,0.29,0.49,0.46,0.81,0.46c0.17,0,0.34-0.04,0.49-0.14C98.3,76.91,98.44,76.33,98.17,75.88z"/>
</g>
<path fill="none" stroke="#231F20" stroke-width="1.9" stroke-linecap="round" stroke-miterlimit="10" d="M11.71,19.51"/>
</svg>
