<?xml version="1.0" encoding="utf-8"?>
<!-- Generator: Adobe Illustrator 26.4.1, SVG Export Plug-In . SVG Version: 6.00 Build 0)  -->
<svg version="1.1" xmlns="http://www.w3.org/2000/svg" xmlns:xlink="http://www.w3.org/1999/xlink" x="0px" y="0px"
	 viewBox="0 0 100 100" style="enable-background:new 0 0 100 100;" xml:space="preserve">
<style type="text/css">
	.st0{fill:#1D214F;}
	.st1{fill:none;stroke:#1D214F;stroke-width:3;stroke-linecap:round;stroke-miterlimit:10;}
	.st2{display:none;}
	.st3{display:inline;fill:none;stroke:#000000;stroke-width:0.25;stroke-miterlimit:10;}
</style>
<g id="Layer_1">
	<path class="st0" d="M69.64,28.39c-0.2,0-0.39,0.02-0.59,0.04c0.62-2.49,1.21-4.79,1.67-6.54c0.21-0.79,0.04-1.64-0.46-2.28
		c-0.5-0.65-1.28-1.03-2.1-1.03H31.83c-0.82,0-1.59,0.38-2.09,1.03c-0.5,0.65-0.67,1.49-0.47,2.28c0.46,1.75,1.05,4.06,1.67,6.55
		c-0.2-0.01-0.39-0.04-0.59-0.04c-3.43,0-9.82,0-9.82,7.86c0,6.26,3.92,15.72,9.82,15.72c2.03,0,3.91-0.74,5.48-2.01
		c1.68,3.9,4.55,7.03,8.27,8.66v14.96h-3.93c-1.09,0-1.96,0.88-1.96,1.96v1.96h-1.96c-1.09,0-1.96,0.88-1.96,1.96
		c0,1.09,0.88,1.96,1.96,1.96h27.5c1.09,0,1.96-0.88,1.96-1.96c0-1.09-0.88-1.96-1.96-1.96h-1.96v-1.96c0-1.09-0.88-1.96-1.96-1.96
		h-3.93V58.61c3.72-1.62,6.59-4.76,8.27-8.66c1.57,1.27,3.45,2.01,5.48,2.01c5.91,0,9.82-9.46,9.82-15.72
		C79.47,28.39,73.08,28.39,69.64,28.39L69.64,28.39z M30.36,48.04c-2.59,0-5.89-6.61-5.89-11.79c0-3.23,1.04-3.93,5.89-3.93
		c0.56,0,1.1,0.14,1.62,0.34c1.06,4.47,2.02,8.91,2.31,11.45c0.06,0.54,0.14,1.08,0.25,1.61C33.46,47.15,31.99,48.04,30.36,48.04
		L30.36,48.04z M69.64,48.04c-1.63,0-3.11-0.89-4.17-2.32c0.1-0.53,0.18-1.07,0.25-1.61c0.29-2.54,1.25-6.98,2.31-11.45
		c0.51-0.2,1.05-0.34,1.62-0.34c4.85,0,5.89,0.7,5.89,3.93C75.54,41.43,72.23,48.04,69.64,48.04L69.64,48.04z"/>
</g>
<g id="Layer_2" class="st2">
</g>
</svg>
