<?xml version="1.0" encoding="utf-8"?>
<!-- Generator: Adobe Illustrator 26.4.1, SVG Export Plug-In . SVG Version: 6.00 Build 0)  -->
<svg version="1.1" xmlns="http://www.w3.org/2000/svg" xmlns:xlink="http://www.w3.org/1999/xlink" x="0px" y="0px"
	 viewBox="0 0 100 100" style="enable-background:new 0 0 100 100;" xml:space="preserve">
<style type="text/css">
	.st0{fill:#1D214F;}
	.st1{fill:none;stroke:#1D214F;stroke-width:3;stroke-linecap:round;stroke-miterlimit:10;}
	.st2{display:none;}
	.st3{display:inline;fill:none;stroke:#000000;stroke-width:0.25;stroke-miterlimit:10;}
</style>
<g id="Layer_1">
	<path class="st0" d="M87.92,27.35l-4.55,23.74c-0.35,1.83-1.95,3.1-3.74,3.1c-0.24,0-0.48-0.02-0.72-0.07
		c-2.07-0.4-3.43-2.39-3.03-4.47l3.66-19.1l-0.94,0.02c-0.06-2.69-1.82-5.08-4.48-5.9c-1.41-0.43-3.34-0.98-5.52-1.49l15.48-0.37
		c1.21-0.05,2.26,0.47,3,1.35C87.83,25.05,88.14,26.22,87.92,27.35z M40.48,49.27c-3.88,4.44-7.63,9.19-10.94,13.6
		c1.63,1.86,4,3.06,6.67,3.06c4.91,0,8.9-3.98,8.9-8.9C45.11,53.68,43.23,50.79,40.48,49.27z M73.37,27.11
		c-4.98-1.54-17.15-4.75-22.5-1.29c-4.51,2.91-9.28,7.27-13.89,12.15L47.77,38c2.47-2.27,4.91-4.25,7.24-5.76
		c1.4-0.81,7.13-0.19,12.97,1.28l-4.05,26.8c-0.31,2.08,1.12,4.03,3.2,4.34c2.08,0.31,4.03-1.12,4.34-3.2l4.55-30.14
		C76.3,29.46,75.17,27.67,73.37,27.11z M30.22,45.6c-10.28,12.24-18.49,24.85-19.04,25.7c-1.15,1.77-0.64,4.13,1.13,5.28
		c0.64,0.42,1.36,0.62,2.07,0.62c1.25,0,2.48-0.62,3.21-1.74c0.15-0.23,10.81-16.6,22.73-29.83L30.22,45.6z M64.33,40.56H4.8l0,2.54
		h59.15L64.33,40.56z M87.98,40.56L87.5,43.1h7.7l0-2.54H87.98z"/>
</g>
<g id="Layer_2" class="st2">
	<circle class="st3" cx="50" cy="50" r="50"/>
</g>
</svg>
