<?xml version="1.0" encoding="utf-8"?>
<!-- Generator: Adobe Illustrator 26.4.1, SVG Export Plug-In . SVG Version: 6.00 Build 0)  -->
<svg version="1.1" xmlns="http://www.w3.org/2000/svg" xmlns:xlink="http://www.w3.org/1999/xlink" x="0px" y="0px"
	 viewBox="0 0 100 100" style="enable-background:new 0 0 100 100;" xml:space="preserve">
<style type="text/css">
	.st0{fill:#1D214F;}
	.st1{fill:none;stroke:#1D214F;stroke-width:3;stroke-linecap:round;stroke-miterlimit:10;}
	.st2{display:none;}
	.st3{display:inline;fill:none;stroke:#000000;stroke-width:0.25;stroke-miterlimit:10;}
</style>
<g id="Layer_1">
	<path class="st0" d="M27.17,35.39c-4.54,0-8.22-3.68-8.22-8.22c0-4.54,3.68-8.22,8.22-8.22c4.54,0,8.22,3.68,8.22,8.22
		C35.39,31.71,31.71,35.39,27.17,35.39z M27.17,31.74c2.52,0,4.57-2.04,4.57-4.57s-2.04-4.57-4.57-4.57s-4.57,2.04-4.57,4.57
		S24.65,31.74,27.17,31.74z M27.17,81.04c-4.54,0-8.22-3.68-8.22-8.22c0-4.54,3.68-8.22,8.22-8.22c4.54,0,8.22,3.68,8.22,8.22
		C35.39,77.36,31.71,81.04,27.17,81.04z M27.17,77.39c2.52,0,4.57-2.04,4.57-4.57c0-2.52-2.04-4.57-4.57-4.57s-4.57,2.04-4.57,4.57
		C22.61,75.35,24.65,77.39,27.17,77.39z M50,81.04c-4.54,0-8.22-3.68-8.22-8.22c0-4.54,3.68-8.22,8.22-8.22s8.22,3.68,8.22,8.22
		C58.22,77.36,54.54,81.04,50,81.04z M50,77.39c2.52,0,4.57-2.04,4.57-4.57c0-2.52-2.04-4.57-4.57-4.57s-4.57,2.04-4.57,4.57
		C45.44,75.35,47.48,77.39,50,77.39z M72.83,81.04c-4.54,0-8.22-3.68-8.22-8.22c0-4.54,3.68-8.22,8.22-8.22
		c4.54,0,8.22,3.68,8.22,8.22C81.04,77.36,77.36,81.04,72.83,81.04z M72.83,77.39c2.52,0,4.57-2.04,4.57-4.57
		c0-2.52-2.04-4.57-4.57-4.57s-4.57,2.04-4.57,4.57C68.26,75.35,70.3,77.39,72.83,77.39z M39.04,51.83v9.13
		c0,1.01-0.82,1.83-1.83,1.83c-1.01,0-1.83-0.82-1.83-1.83V50c0-1.01,0.82-1.83,1.83-1.83h15.52c1.51,0,2.74-1.23,2.74-2.74
		c0-1.51-1.23-2.74-2.74-2.74H26.26c-2.02,0-3.65,1.64-3.65,3.65v14.61c0,1.01-0.82,1.83-1.83,1.83c-1.01,0-1.83-0.82-1.83-1.83
		V46.35c0-4.03,3.27-7.3,7.3-7.3h26.48c3.53,0,6.39,2.86,6.39,6.39c0,3.53-2.86,6.39-6.39,6.39L39.04,51.83z"/>
</g>
<g id="Layer_2" class="st2">
</g>
</svg>
