<?xml version="1.0" encoding="utf-8"?>
<!-- Generator: Adobe Illustrator 26.4.1, SVG Export Plug-In . SVG Version: 6.00 Build 0)  -->
<svg version="1.1" xmlns="http://www.w3.org/2000/svg" xmlns:xlink="http://www.w3.org/1999/xlink" x="0px" y="0px"
	 viewBox="0 0 100 100" style="enable-background:new 0 0 100 100;" xml:space="preserve">
<style type="text/css">
	.st0{fill:#1D214F;}
	.st1{fill:none;stroke:#1D214F;stroke-width:3;stroke-linecap:round;stroke-miterlimit:10;}
	.st2{display:none;}
	.st3{display:inline;fill:none;stroke:#000000;stroke-width:0.25;stroke-miterlimit:10;}
</style>
<g id="Layer_1">
	<path class="st0" d="M112.09,83.67h-2.27c-1.58-7.09-6.38-20.29-20.93-35.1C77.3,36.77,61.63,30.39,47.78,26.94
		c-0.04-0.76-0.08-1.51-0.14-2.24c14.32,3.49,30.7,10.04,42.8,22.35C105.78,62.66,110.59,76.38,112.09,83.67z M27.16,29.47
		c0.69-1.32,1.79-2.38,3.15-2.98c-1.1-1.14-2.16-2.16-3.13-3.05c3.4,0.32,7.4,0.82,11.78,1.6c-0.03-0.33-0.05-0.66-0.08-0.99
		c-0.04-0.41,0-0.81,0.07-1.19c-5.61-0.99-10.6-1.53-14.49-1.82c-0.65-0.55-1.09-0.9-1.17-0.96c-0.94-0.73-2.31-0.57-3.05,0.37
		c-0.08,0.1-0.11,0.22-0.16,0.33c-2.54-0.1-4.03-0.08-4.11-0.08c-0.6,0.01-1.07,0.51-1.06,1.11c0.01,0.6,0.47,1.08,1.11,1.06
		c0.08,0,1.59-0.02,4.14,0.08c0.13,0.2,0.27,0.39,0.47,0.55C20.69,23.55,23.83,26.03,27.16,29.47z M28.57,32.45
		c0,2.4,1.94,4.34,4.34,4.34c0.19,0,0.38-0.03,0.57-0.06c0.2-0.22,0.37-0.45,0.62-0.64c1.12-0.84,2.12-1.65,2.93-2.36
		c0.13-0.41,0.22-0.83,0.22-1.29c0-2.39-1.94-4.34-4.34-4.34C30.52,28.12,28.57,30.06,28.57,32.45z M39.22,40.38
		c2.1-1.64,5.15-4.25,5.9-6.04c0.94-2.26,0.49-8.37,0.25-10.89c-0.11-1.19-1.16-2.08-2.36-1.96c-1.19,0.11-2.07,1.17-1.96,2.36
		c0.32,3.41,0.42,7.88,0.06,8.81c-0.37,0.77-3.04,3.18-5.72,5.17c-0.76,0.57-1.07,1.57-0.75,2.47c2.33,6.51,1.07,14.67-3.75,24.25
		c-0.65,0.97-1.42,2.03-2.22,3.13c-2.43,3.34-4.93,6.79-5.75,9.72c-0.31,1.1-0.18,3.25-0.07,4.43c0.1,1.13,1.05,1.98,2.16,1.98
		c0.06,0,0.13,0,0.19-0.01c1.19-0.11,2.08-1.16,1.97-2.36c-0.1-1.16-0.13-2.55-0.07-2.87c0.61-2.18,2.99-5.46,5.09-8.34
		c0.86-1.19,1.69-2.33,2.39-3.38c0.05-0.07,0.09-0.15,0.13-0.23C39.77,56.6,41.28,47.78,39.22,40.38z M42.27,52.22
		c-0.17,0-0.28,0.01-0.43,0.01c-0.21,1.4-0.49,2.81-0.88,4.27c0.44,0.03,0.94,0.05,1.53,0.05c2.87,0,6.14,0.36,6.87,0.99
		c-0.47,0.82-2.74,2.34-4,3.18c-2.52,1.69-4.9,3.28-5.72,5.38c-0.31,0.8-0.36,2.17-0.13,4.07c0.13,1.1,1.07,1.91,2.15,1.91
		c0.08,0,0.17-0.01,0.26-0.01c1.19-0.14,2.04-1.22,1.9-2.41c-0.1-0.81-0.14-1.85-0.13-1.98c0.32-0.83,2.59-2.35,4.1-3.35
		c3.34-2.24,7.13-4.77,5.7-8.31C51.87,52.04,44.5,52.22,42.27,52.22z"/>
</g>
<g id="Layer_2" class="st2">
	<circle class="st3" cx="50" cy="50" r="50"/>
</g>
</svg>
