<?xml version="1.0" encoding="utf-8"?>
<!-- Generator: Adobe Illustrator 26.4.1, SVG Export Plug-In . SVG Version: 6.00 Build 0)  -->
<svg version="1.1" xmlns="http://www.w3.org/2000/svg" xmlns:xlink="http://www.w3.org/1999/xlink" x="0px" y="0px"
	 viewBox="0 0 100 100" style="enable-background:new 0 0 100 100;" xml:space="preserve">
<style type="text/css">
	.st0{fill:#1D214F;}
	.st1{fill:none;stroke:#1D214F;stroke-width:3;stroke-linecap:round;stroke-miterlimit:10;}
	.st2{display:none;}
	.st3{display:inline;fill:none;stroke:#000000;stroke-width:0.25;stroke-miterlimit:10;}
</style>
<g id="Layer_1">
	<path class="st0" d="M44.25,22.48l6.92-9.51c1.19-1.64,3.46-2.07,5.17-0.98l14.09,8.95c1.8,1.14,2.32,3.52,1.18,5.31
		c-0.69,1.09-1.85,1.71-3.05,1.78c-0.77,0.04-1.56-0.15-2.26-0.6l-11.04-7.01L50.47,27c-1.25,1.72-3.65,2.1-5.38,0.85
		C43.38,26.6,43,24.19,44.25,22.48z M35.21,31.17c4.26-1.28,6.68-5.78,5.39-10.04c-1.28-4.26-5.78-6.67-10.04-5.39
		c-4.26,1.29-6.67,5.78-5.39,10.04C26.45,30.05,30.95,32.46,35.21,31.17z M85.79,54.1l-1.15-3.98c-0.28-0.99-0.95-1.82-1.86-2.31
		c-0.9-0.49-1.97-0.6-2.95-0.3l-14.24,4.29l0.98-5.32c-2.14,1.24-4.89,2-8.24,2.26l-1.44,7.87c-0.24,1.32,0.22,2.67,1.22,3.56
		c0.72,0.64,1.63,0.98,2.57,0.98c0.37,0,0.75-0.05,1.11-0.16l16.54-4.99l0.07,0.24c0.59,2.04,2.72,3.22,4.76,2.63
		C85.2,58.28,86.38,56.14,85.79,54.1z M67.94,41.87c1.5-2.18,1.94-4.81,1.21-7.23c-0.78-2.56-2.81-4.61-5.74-5.78
		c-1.97-0.79-4.21,0.17-5,2.15c-0.79,1.97,0.17,4.21,2.15,5c0.87,0.35,1.18,0.72,1.23,0.86c0.04,0.13-0.01,0.39-0.18,0.63
		c-1.12,1.5-9.6,1.53-18.44-0.68c-0.87-0.22-1.79-0.12-2.6,0.27L22.09,46l-2.38-1.26c-1.88-1-4.21-0.27-5.2,1.61
		c-0.99,1.88-0.27,4.21,1.61,5.2l4.1,2.16c0.56,0.3,1.18,0.44,1.79,0.44c0.57,0,1.14-0.13,1.67-0.38l18.98-9.15
		C48.82,46.03,63.37,48.51,67.94,41.87z M54.28,85.03h-8.97V52.87c0-0.99-0.8-1.79-1.79-1.79c-0.99,0-1.79,0.8-1.79,1.79v32.16
		h-8.97c-0.99,0-1.79,0.8-1.79,1.79s0.8,1.79,1.79,1.79h21.53c0.99,0,1.79-0.8,1.79-1.79S55.27,85.03,54.28,85.03z"/>
</g>
<g id="Layer_2" class="st2">
	<circle class="st3" cx="50" cy="50" r="50"/>
</g>
</svg>
