<?xml version="1.0" encoding="utf-8"?>
<!-- Generator: Adobe Illustrator 26.4.1, SVG Export Plug-In . SVG Version: 6.00 Build 0)  -->
<svg version="1.1" xmlns="http://www.w3.org/2000/svg" xmlns:xlink="http://www.w3.org/1999/xlink" x="0px" y="0px"
	 viewBox="0 0 100 100" style="enable-background:new 0 0 100 100;" xml:space="preserve">
<style type="text/css">
	.st0{fill:#1D214F;}
	.st1{fill:none;stroke:#1D214F;stroke-width:3;stroke-linecap:round;stroke-miterlimit:10;}
	.st2{display:none;}
	.st3{display:inline;fill:none;stroke:#000000;stroke-width:0.25;stroke-miterlimit:10;}
</style>
<g id="Layer_1">
	<path class="st0" d="M72.54,85.27c0.47,2.07-0.83,4.13-2.91,4.6c-0.29,0.07-0.57,0.1-0.85,0.1c-1.76,0-3.35-1.21-3.75-3
		c-4.07-18.02-10.85-32.01-13.96-32.01c-4.66,0-15.52,16.37-22.36,31.06c-0.9,1.93-3.18,2.76-5.11,1.87
		c-1.93-0.9-2.76-3.18-1.87-5.11c3.88-8.33,17.44-35.52,29.36-35.52C62.72,47.27,69.96,73.84,72.54,85.27z M36.43,21.35
		c2.57,0,4.72,1.67,5.51,3.98c0.36,0.05,0.71,0.11,1.08,0.11c4.25,0,7.7-3.45,7.7-7.7s-3.45-7.7-7.7-7.7c-4.26,0-7.7,3.45-7.7,7.7
		c0,1.32,0.36,2.54,0.95,3.63C36.32,21.37,36.37,21.35,36.43,21.35z M74.73,27.61c-0.2,0.01-18.86,0-27.7,0
		c-2.6,0-4.48,1.34-6.15,3.4c-1.11,1.19-2.67,2-4.44,2c-1.13,0-2.18-0.34-3.07-0.89c-6.52,12.77-2.23,15.17-0.77,15.97
		c0.97,0.53,1.89,0.76,2.74,0.76c3.87,0,6.58-4.77,8.66-8.43c0.93-1.63,1.98-3.37,3.01-4.04c1.04-0.68,2.29-1,3.72-0.99
		c8.92,0.04,22.73-0.06,24.12-0.08c2.13-0.03,3.83-1.78,3.8-3.9S76.86,27.61,74.73,27.61z M36.43,30.44c1.81,0,3.26-1.46,3.26-3.26
		c0-1.8-1.46-3.26-3.26-3.26c-1.8,0-3.26,1.46-3.26,3.26C33.17,28.98,34.63,30.44,36.43,30.44z"/>
</g>
<g id="Layer_2" class="st2">
	<circle class="st3" cx="50" cy="50" r="50"/>
</g>
</svg>
