<?xml version="1.0" encoding="utf-8"?>
<!-- Generator: Adobe Illustrator 26.4.1, SVG Export Plug-In . SVG Version: 6.00 Build 0)  -->
<svg version="1.1" xmlns="http://www.w3.org/2000/svg" xmlns:xlink="http://www.w3.org/1999/xlink" x="0px" y="0px"
	 viewBox="0 0 100 100" style="enable-background:new 0 0 100 100;" xml:space="preserve">
<style type="text/css">
	.st0{fill:#1D214F;}
	.st1{fill:none;stroke:#1D214F;stroke-width:3;stroke-linecap:round;stroke-miterlimit:10;}
	.st2{display:none;}
	.st3{display:inline;fill:none;stroke:#000000;stroke-width:0.25;stroke-miterlimit:10;}
</style>
<g id="Layer_1">
	<line class="st1" x1="65.62" y1="27.61" x2="61.29" y2="41.81"/>
	<path class="st0" d="M87.24,81.84c-0.72,1.25-2.04,1.95-3.39,1.95c-0.66,0-1.34-0.17-1.95-0.52L62.69,72.17
		c-0.53-0.31-0.99-0.74-1.32-1.26l-6.46-9.96l2.82-1.38c1.54-0.75,2.68-2.06,3.25-3.63l6.44,9.93L85.81,76.5
		C87.68,77.58,88.32,79.97,87.24,81.84z M28.96,34.45c5.04,0,9.12-4.09,9.12-9.12c0-5.03-4.09-9.12-9.12-9.12
		c-5.04,0-9.12,4.08-9.12,9.12C19.84,30.37,23.92,34.45,28.96,34.45z M33.32,43.27c-1.47-1.31-2.27-3.25-2.16-5.22l-4.23,2.84
		l-7.9-8.65c-1.45-1.6-3.93-1.71-5.52-0.25c-1.59,1.45-1.71,3.93-0.25,5.52l10.17,11.14c0.76,0.84,1.82,1.27,2.89,1.27
		c0.75,0,1.51-0.22,2.18-0.66l6.59-4.43L33.32,43.27z M41.43,64.61l15.16-7.38c1.17-0.57,1.98-1.69,2.16-2.98
		c0.18-1.29-0.3-2.59-1.28-3.45L44.05,38.85l8.01-5.31l11.72,3.35c2.08,0.59,4.24-0.61,4.83-2.68c0.59-2.08-0.61-4.24-2.68-4.84
		l-13.45-3.85c-1.1-0.32-2.28-0.13-3.23,0.5l-13.75,9.11c-1.01,0.67-1.65,1.77-1.74,2.98c-0.09,1.21,0.39,2.39,1.3,3.2l12.86,11.44
		l-13.79,6.72c-0.99,0.48-1.74,1.36-2.04,2.43c-0.31,1.06-0.15,2.2,0.43,3.14l10.43,16.89c0.74,1.2,2.02,1.86,3.33,1.86
		c0.7,0,1.41-0.19,2.05-0.58c1.84-1.14,2.41-3.55,1.27-5.38L41.43,64.61z"/>
</g>
<g id="Layer_2" class="st2">
	<circle class="st3" cx="50" cy="50" r="50"/>
</g>
</svg>
