<?xml version="1.0" encoding="utf-8"?>
<!-- Generator: Adobe Illustrator 26.4.1, SVG Export Plug-In . SVG Version: 6.00 Build 0)  -->
<svg version="1.1" xmlns="http://www.w3.org/2000/svg" xmlns:xlink="http://www.w3.org/1999/xlink" x="0px" y="0px"
	 viewBox="0 0 100 100" style="enable-background:new 0 0 100 100;" xml:space="preserve">
<style type="text/css">
	.st0{fill:#1D214F;}
	.st1{fill:none;stroke:#1D214F;stroke-width:3;stroke-linecap:round;stroke-miterlimit:10;}
	.st2{display:none;}
	.st3{display:inline;fill:none;stroke:#000000;stroke-width:0.25;stroke-miterlimit:10;}
</style>
<g id="Layer_1">
	<path class="st0" d="M34.87,36.16L24.55,53.74c-0.91,1.54-2.53,2.4-4.2,2.4c-0.84,0-1.68-0.22-2.46-0.67
		c-2.31-1.36-3.09-4.34-1.73-6.65l12.03-20.5c1.03-1.76,3.05-2.67,5.05-2.33l17.38,3.12c2.64,0.47,4.4,3,3.93,5.64
		c-0.47,2.64-2.99,4.41-5.64,3.93L34.87,36.16z M84.33,75.83c-0.72-2.59-3.4-4.11-5.98-3.38l-2.93,0.81L70.6,47.92
		c-0.27-1.43-1.17-2.66-2.44-3.36c-1.27-0.7-2.79-0.79-4.14-0.25L35.04,55.9c-2.49,1-3.7,3.83-2.71,6.32c1,2.49,3.83,3.71,6.32,2.71
		l23.49-9.4l4.7,24.73c0.25,1.34,1.05,2.5,2.21,3.22c0.78,0.48,1.67,0.73,2.57,0.73c0.44,0,0.87-0.06,1.3-0.18l8.02-2.23
		C83.53,81.1,85.04,78.42,84.33,75.83z M69.18,35.22c5.37,0,9.72-4.35,9.72-9.72c0-5.37-4.36-9.72-9.72-9.72
		c-5.37,0-9.72,4.35-9.72,9.72C59.46,30.87,63.81,35.22,69.18,35.22z"/>
</g>
<g id="Layer_2" class="st2">
	<circle class="st3" cx="50" cy="50" r="50"/>
</g>
</svg>
