<?xml version="1.0" encoding="utf-8"?>
<!-- Generator: Adobe Illustrator 27.8.0, SVG Export Plug-In . SVG Version: 6.00 Build 0)  -->
<svg version="1.0" id="Layer_1" xmlns="http://www.w3.org/2000/svg" xmlns:xlink="http://www.w3.org/1999/xlink" x="0px" y="0px"
	 viewBox="0 0 100 100" enable-background="new 0 0 100 100" xml:space="preserve">
<g>
	<path fill="#1E2150" d="M90.48,32.98c5.56-4.13,6.72-12,2.59-17.56c-4.13-5.56-12-6.72-17.56-2.59c-5.56,4.13-6.72,12-2.59,17.56
		C77.04,35.94,84.92,37.1,90.48,32.98z"/>
	<path fill="#1E2150" d="M64.55,62.25c-0.59-0.75-1.33-1.29-2.14-1.65l-10.17-7.97l16.92-12.57c5.5-4.08,2.71-7.83,0.02-11.45
		c-1.45-1.94-2.92-3.93-4.83-4.72c-0.14-0.08-0.28-0.17-0.43-0.24l-14.22-7.27c-0.45-0.23-0.89-0.39-1.35-0.51c0,0,0,0-0.01,0
		c-0.12-0.04-0.25-0.06-0.37-0.08c-0.11-0.02-0.22-0.04-0.31-0.06c-0.05-0.01-0.11-0.01-0.16-0.02c-0.12-0.01-0.24-0.02-0.36-0.04
		c-0.06,0-0.13-0.01-0.19-0.01c-0.1,0-0.19,0-0.3,0c-0.08,0-0.18,0-0.27,0.01c-0.08,0-0.17,0.01-0.27,0.02
		c-0.08,0.01-0.16,0.01-0.23,0.02c-0.78,0.11-1.57,0.37-2.33,0.8l-12.29,7.78c-2.28,1.27-3.22,3.87-2.1,5.79
		c1.13,1.92,3.91,2.45,6.13,1.21l11.52-5.6l6.45,3.29L36.25,41.65c-5.5,4.09-2.71,7.83-0.02,11.45c0.98,1.31,1.97,2.64,3.09,3.61
		c0.3,0.42,0.66,0.81,1.1,1.15l10.64,8.34l-7.23,6.42c-2,1.58-2.35,4.57-0.72,6.62c1.63,2.05,4.61,2.4,6.67,0.78l12.27-8.61
		c0.98-0.35,1.88-0.97,2.57-1.85c0.99-1.25,1.35-2.8,1.16-4.28C65.65,64.21,65.26,63.16,64.55,62.25z"/>
	<path fill="#1E2150" d="M31.88,47.78c-0.11-0.62-0.13-1.21-0.07-1.79L20.18,57.37c-0.25,0.14-0.52,0.3-0.76,0.49L6.73,68.97
		c-2.06,1.6-2.44,4.6-0.82,6.66c1.62,2.06,4.6,2.44,6.61,0.86l13.85-9.59c0.51-0.25,0.99-0.59,1.42-1.01l9.53-9.32
		c-0.76-0.84-1.46-1.77-2.15-2.69C33.75,51.96,32.28,49.98,31.88,47.78z"/>
	<path fill="#1E2150" d="M99.48,37.93c-1.18-1.89-3.96-2.35-6.15-1.06l-10.76,5.56l-8.95-7.77c0.17,2.38-1.04,4.49-3.68,6.44
		l-1.93,1.44l10,8.69c0.65,0.57,1.38,0.98,2.12,1.23c0.02,0.01,0.05,0.01,0.07,0.02c0.11,0.04,0.23,0.07,0.34,0.11
		c0.08,0.02,0.17,0.04,0.25,0.06c0.08,0.02,0.18,0.04,0.27,0.06c0.06,0.01,0.12,0.02,0.19,0.02c0.12,0.02,0.25,0.04,0.37,0.05
		c0.02,0,0.05,0,0.07,0c0.16,0.01,0.31,0.01,0.47,0.01c0.02,0,0.05,0,0.07,0c0.12,0,0.24-0.01,0.36-0.02
		c0.94-0.08,1.91-0.37,2.82-0.92l12.1-8.07C99.77,42.45,100.65,39.83,99.48,37.93z"/>
	<path fill="#1E2150" d="M11.44,78.51c-0.39,0.12-0.78,0.21-1.21,0.24c-2.07,0.19-4.08-0.66-5.36-2.3c-1-1.29-1.4-2.86-1.24-4.38
		l-1.5-1.24c-0.24-0.19-0.53-0.3-0.83-0.3c-0.19,0-0.37,0.04-0.55,0.12C0.29,70.87,0,71.32,0,71.83v12.81c0,0.72,0.58,1.3,1.3,1.3
		h15.74c0.55,0,1.05-0.35,1.23-0.87c0.18-0.52,0.01-1.11-0.42-1.45L11.44,78.51z"/>
</g>
</svg>
