<?xml version="1.0" encoding="utf-8"?>
<!-- Generator: Adobe Illustrator 27.8.0, SVG Export Plug-In . SVG Version: 6.00 Build 0)  -->
<svg version="1.0" id="Layer_1" xmlns="http://www.w3.org/2000/svg" xmlns:xlink="http://www.w3.org/1999/xlink" x="0px" y="0px"
	 viewBox="0 0 100 100" enable-background="new 0 0 100 100" xml:space="preserve">
<g>
	<path fill="#1E2150" d="M55.78,19.49c-0.07,0.19-0.14,0.4-0.24,0.61c-0.14,0.56-0.36,1.11-0.63,1.62l-4.09,7.68
		c0.65,0.6,1.38,1.14,2.19,1.61c5.9,3.41,13.62,1.62,17.2-4.01c3.58-5.62,1.7-12.97-4.2-16.38c-2.29-1.32-4.85-1.86-7.34-1.7
		L55.8,19.42C55.79,19.44,55.79,19.46,55.78,19.49z"/>
	<path fill="#1E2150" d="M70.76,13.15l2.05-3.51c1.39-2.1,0.97-4.7-0.93-5.79c-1.91-1.09-4.59-0.27-5.94,1.78l-2.02,2.7
		c0.96,0.31,1.89,0.71,2.78,1.23C68.34,10.51,69.7,11.74,70.76,13.15z"/>
	<path fill="#1E2150" d="M59.65,47.2c-0.6-0.05-1.22,0-1.84,0.15l-8.56,2.07l-2.03,3.19l5.7-0.72c0.3-0.04,0.6-0.06,0.9-0.06
		c0.42,0,0.85,0.04,1.27,0.11c0.77,0.05,1.51,0.21,2.22,0.48c0.02,0.01,0.05,0.02,0.07,0.03l15.18,6.85
		c1.06,0.42,1.93,1.1,2.56,1.93c2.44,0.61,5.01-0.8,5.71-3.18c0.69-2.4-0.79-4.89-3.31-5.55l-15.95-5.13
		C60.93,47.21,60.28,47.16,59.65,47.2z"/>
	<path fill="#1E2150" d="M27.64,64.14c1.06,0.61,2.13,1.23,3.2,1.69c1.02,0.52,2.21,0.76,3.45,0.61l19.39-2.46l14.86,4.83
		c2.36,0.91,5.12-0.2,6.11-2.5c0.98-2.31-0.19-4.94-2.6-5.88l-15.21-6.87c-0.62-0.24-1.26-0.37-1.89-0.4
		c-0.59-0.11-1.21-0.14-1.85-0.06l-8.39,1.06l8.49-13.31c1.66-2.6,1.67-4.48,0.82-5.98l1.38-1.5c-1.06-0.32-2.08-0.75-3.05-1.31
		c-1.17-0.68-2.21-1.5-3.1-2.44l4.5-8.47c0.25-0.47,0.43-0.96,0.55-1.45c0.09-0.19,0.17-0.39,0.24-0.6l3.67-13.38
		c0.8-2.36-0.28-4.78-2.41-5.38c-2.13-0.6-4.52,0.83-5.29,3.13l-5.28,13.06c-0.09,0.27-0.16,0.54-0.21,0.81L39.2,28.28
		c-1.73,0.32-3.33,1.26-4.55,3.17L23.36,54.05C19.81,59.61,23.79,61.91,27.64,64.14z"/>
	<rect y="97" fill="#1E2150" width="100" height="3"/>
</g>
</svg>
